<svg width="1780" height="1182" viewBox="0 0 1780 1182" fill="none" xmlns="http://www.w3.org/2000/svg">
<rect opacity="0.203637" x="303.637" y="534.591" width="196" height="196" rx="29" transform="rotate(30 303.637 534.591)" fill="#D1C4E9"/>
<path fill-rule="evenodd" clip-rule="evenodd" d="M344.488 527.984C341.636 525.133 337.013 525.133 334.161 527.984C331.31 530.836 331.31 535.459 334.161 538.311C337.013 541.163 341.637 541.162 344.488 538.311C347.34 535.459 347.34 530.836 344.488 527.984Z" fill="#D1C4E9"/>
<path fill-rule="evenodd" clip-rule="evenodd" d="M299.681 572.791C296.829 569.939 292.206 569.939 289.355 572.791C286.503 575.642 286.503 580.266 289.355 583.118C292.206 585.97 296.83 585.969 299.681 583.118C302.533 580.266 302.533 575.643 299.681 572.791Z" fill="#D1C4E9"/>
<path fill-rule="evenodd" clip-rule="evenodd" d="M254.874 617.598C252.023 614.746 247.4 614.746 244.548 617.598C241.696 620.45 241.696 625.073 244.548 627.924C247.4 630.776 252.023 630.776 254.874 627.924C257.726 625.073 257.726 620.45 254.874 617.598Z" fill="#D1C4E9"/>
<path fill-rule="evenodd" clip-rule="evenodd" d="M210.068 662.405C207.216 659.553 202.592 659.553 199.741 662.405C196.889 665.256 196.889 669.879 199.741 672.731C202.593 675.583 207.216 675.583 210.068 672.731C212.919 669.88 212.92 665.256 210.068 662.405Z" fill="#D1C4E9"/>
<path fill-rule="evenodd" clip-rule="evenodd" d="M389.295 572.791C386.443 569.94 381.82 569.94 378.968 572.791C376.117 575.643 376.117 580.266 378.968 583.118C381.82 585.97 386.444 585.969 389.295 583.118C392.147 580.266 392.147 575.643 389.295 572.791Z" fill="#D1C4E9"/>
<path fill-rule="evenodd" clip-rule="evenodd" d="M344.488 617.598C341.636 614.746 337.013 614.746 334.162 617.598C331.311 620.449 331.31 625.073 334.162 627.925C337.013 630.777 341.637 630.776 344.488 627.925C347.34 625.073 347.34 620.45 344.488 617.598Z" fill="#D1C4E9"/>
<path fill-rule="evenodd" clip-rule="evenodd" d="M299.682 662.405C296.83 659.553 292.207 659.553 289.355 662.405C286.503 665.257 286.503 669.88 289.355 672.731C292.207 675.583 296.83 675.583 299.682 672.731C302.533 669.88 302.533 665.257 299.682 662.405Z" fill="#D1C4E9"/>
<path fill-rule="evenodd" clip-rule="evenodd" d="M254.875 707.212C252.023 704.36 247.399 704.36 244.548 707.212C241.697 710.063 241.697 714.686 244.548 717.538C247.4 720.39 252.023 720.39 254.875 717.538C257.726 714.687 257.727 710.063 254.875 707.212Z" fill="#D1C4E9"/>
<path fill-rule="evenodd" clip-rule="evenodd" d="M434.102 617.598C431.25 614.746 426.627 614.746 423.775 617.598C420.924 620.449 420.923 625.073 423.775 627.925C426.627 630.776 431.251 630.776 434.102 627.925C436.954 625.073 436.954 620.45 434.102 617.598Z" fill="#D1C4E9"/>
<path fill-rule="evenodd" clip-rule="evenodd" d="M389.295 662.405C386.443 659.553 381.82 659.553 378.968 662.405C376.117 665.256 376.117 669.88 378.968 672.731C381.82 675.583 386.444 675.583 389.295 672.731C392.147 669.88 392.147 665.257 389.295 662.405Z" fill="#D1C4E9"/>
<path fill-rule="evenodd" clip-rule="evenodd" d="M344.488 707.212C341.636 704.36 337.013 704.36 334.162 707.212C331.31 710.063 331.31 714.686 334.162 717.538C337.013 720.39 341.636 720.39 344.488 717.538C347.34 714.686 347.34 710.063 344.488 707.212Z" fill="#D1C4E9"/>
<path fill-rule="evenodd" clip-rule="evenodd" d="M299.682 752.018C296.83 749.167 292.206 749.167 289.355 752.018C286.503 754.87 286.503 759.493 289.355 762.345C292.207 765.197 296.83 765.197 299.682 762.345C302.533 759.494 302.533 754.87 299.682 752.018Z" fill="#D1C4E9"/>
<path fill-rule="evenodd" clip-rule="evenodd" d="M478.908 662.405C476.057 659.553 471.434 659.553 468.582 662.405C465.731 665.256 465.73 669.88 468.582 672.731C471.434 675.583 476.057 675.583 478.908 672.731C481.76 669.88 481.76 665.257 478.908 662.405Z" fill="#D1C4E9"/>
<path fill-rule="evenodd" clip-rule="evenodd" d="M434.102 707.212C431.25 704.36 426.627 704.36 423.775 707.212C420.924 710.063 420.923 714.686 423.775 717.538C426.627 720.39 431.25 720.389 434.102 717.538C436.953 714.686 436.953 710.063 434.102 707.212Z" fill="#D1C4E9"/>
<path fill-rule="evenodd" clip-rule="evenodd" d="M389.295 752.018C386.443 749.167 381.82 749.167 378.968 752.018C376.117 754.87 376.117 759.493 378.968 762.345C381.82 765.197 386.443 765.197 389.295 762.345C392.147 759.493 392.147 754.87 389.295 752.018Z" fill="#D1C4E9"/>
<path fill-rule="evenodd" clip-rule="evenodd" d="M344.488 796.825C341.636 793.973 337.013 793.974 334.162 796.825C331.31 799.677 331.31 804.3 334.162 807.152C337.013 810.003 341.636 810.003 344.488 807.152C347.339 804.3 347.34 799.677 344.488 796.825Z" fill="#D1C4E9"/>
<path opacity="0.201409" fill-rule="evenodd" clip-rule="evenodd" d="M161.441 40.8202L245.709 35.2016L198.709 116.608L161.441 40.8202Z" stroke="#673AB7" stroke-width="13"/>
<ellipse opacity="0.203246" cx="1555.85" cy="1111.38" rx="98.5" ry="98" transform="rotate(30 1555.85 1111.38)" stroke="#00BCD4" stroke-width="21"/>
</svg>
