<svg width="50" height="50" viewBox="0 0 50 50" fill="none" xmlns="http://www.w3.org/2000/svg">
<path d="M25.0003 36.4583C29.8545 36.4583 33.9587 33.4166 35.6462 29.1666H14.3545C16.0212 33.4166 20.1462 36.4583 25.0003 36.4583ZM17.7087 22.9166C18.5375 22.9166 19.3323 22.5874 19.9184 22.0013C20.5044 21.4153 20.8337 20.6204 20.8337 19.7916C20.8337 18.9628 20.5044 18.168 19.9184 17.5819C19.3323 16.9959 18.5375 16.6666 17.7087 16.6666C16.8799 16.6666 16.085 16.9959 15.499 17.5819C14.9129 18.168 14.5837 18.9628 14.5837 19.7916C14.5837 20.6204 14.9129 21.4153 15.499 22.0013C16.085 22.5874 16.8799 22.9166 17.7087 22.9166ZM32.292 22.9166C33.1208 22.9166 33.9157 22.5874 34.5017 22.0013C35.0878 21.4153 35.417 20.6204 35.417 19.7916C35.417 18.9628 35.0878 18.168 34.5017 17.5819C33.9157 16.9959 33.1208 16.6666 32.292 16.6666C31.4632 16.6666 30.6683 16.9959 30.0823 17.5819C29.4962 18.168 29.167 18.9628 29.167 19.7916C29.167 20.6204 29.4962 21.4153 30.0823 22.0013C30.6683 22.5874 31.4632 22.9166 32.292 22.9166ZM25.0003 41.6666C20.5801 41.6666 16.3408 39.9107 13.2152 36.7851C10.0896 33.6595 8.33366 29.4202 8.33366 25C8.33366 20.5797 10.0896 16.3405 13.2152 13.2148C16.3408 10.0892 20.5801 8.33329 25.0003 8.33329C29.4206 8.33329 33.6598 10.0892 36.7854 13.2148C39.911 16.3405 41.667 20.5797 41.667 25C41.667 29.4202 39.911 33.6595 36.7854 36.7851C33.6598 39.9107 29.4206 41.6666 25.0003 41.6666ZM25.0003 4.16663C13.4795 4.16663 4.16699 13.5416 4.16699 25C4.16699 30.5253 6.36193 35.8243 10.2689 39.7314C12.2035 41.6659 14.5001 43.2005 17.0278 44.2475C19.5554 45.2944 22.2645 45.8333 25.0003 45.8333C30.5257 45.8333 35.8247 43.6384 39.7317 39.7314C43.6387 35.8243 45.8337 30.5253 45.8337 25C45.8337 22.2641 45.2948 19.555 44.2478 17.0274C43.2008 14.4998 41.6663 12.2031 39.7317 10.2686C37.7972 8.33401 35.5005 6.79944 32.9729 5.75247C30.4453 4.7055 27.7362 4.16663 25.0003 4.16663Z" fill="#00BCD4"/>
</svg>
