<svg width="50" height="50" viewBox="0 0 50 50" fill="none" xmlns="http://www.w3.org/2000/svg">
<path d="M11.6061 16.4312C11.0092 12.5 13.7811 8.96871 18.0155 7.67496C18.7669 7.44677 19.577 7.51289 20.2815 7.85991C20.986 8.20694 21.5322 8.80889 21.8092 9.54371L23.1686 13.1687C23.3874 13.7519 23.427 14.3871 23.2822 14.9929C23.1375 15.5988 22.815 16.1475 22.3561 16.5687L18.3124 20.2718C18.1128 20.4546 17.9641 20.686 17.8808 20.9435C17.7976 21.2009 17.7826 21.4756 17.8374 21.7406L17.8749 21.9031L17.9717 22.3093C18.4759 24.2828 19.2421 26.1799 20.2499 27.95C21.3502 29.8294 22.7141 31.5416 24.2999 33.0343L24.4249 33.1468C24.6267 33.326 24.8716 33.4499 25.1356 33.5063C25.3995 33.5627 25.6736 33.5497 25.9311 33.4687L31.1592 31.8218C31.7534 31.6353 32.3897 31.6305 32.9866 31.8081C33.5835 31.9858 34.1137 32.3377 34.5092 32.8187L36.9842 35.8218C38.0155 37.0718 37.8905 38.9093 36.7061 40.0125C33.4655 43.0343 29.0092 43.6531 25.9092 41.1625C22.1077 38.099 18.9041 34.3603 16.4592 30.1343C13.9905 25.9139 12.3458 21.2644 11.6061 16.4312ZM21.1124 21.9468L24.4624 18.8718C25.3806 18.0298 26.0262 16.9325 26.3163 15.7208C26.6064 14.5092 26.5278 13.2385 26.0905 12.0718L24.7342 8.44684C24.1778 6.968 23.0794 5.7564 21.662 5.05816C20.2446 4.35991 18.6146 4.22737 17.103 4.68746C11.8436 6.29684 7.62174 11.0125 8.51549 16.9031C9.14049 21.0156 10.5811 26.2468 13.7592 31.7093C16.3971 36.266 19.8528 40.297 23.953 43.6C28.603 47.3343 34.8092 46.0593 38.8405 42.3031C39.994 41.2291 40.6941 39.7554 40.7981 38.1827C40.902 36.6101 40.4019 35.0571 39.3999 33.8406L36.9249 30.8343C36.1331 29.8733 35.0723 29.1707 33.8786 28.8166C32.6849 28.4625 31.4126 28.473 30.2249 28.8468L25.8842 30.2125C24.7634 29.057 23.7818 27.7743 22.9592 26.3906C22.1655 24.9913 21.5463 23.4999 21.1155 21.95" fill="#00BCD4"/>
</svg>
