<svg width="50" height="50" viewBox="0 0 50 50" fill="none" xmlns="http://www.w3.org/2000/svg">
<path d="M25.0003 13.5416C26.3817 13.5416 27.7064 14.0904 28.6832 15.0671C29.6599 16.0439 30.2087 17.3686 30.2087 18.75C30.2087 19.4339 30.0739 20.1112 29.8122 20.7431C29.5505 21.375 29.1668 21.9492 28.6832 22.4328C28.1995 22.9164 27.6254 23.3001 26.9935 23.5618C26.3616 23.8236 25.6843 23.9583 25.0003 23.9583C23.619 23.9583 22.2942 23.4096 21.3175 22.4328C20.3407 21.4561 19.792 20.1313 19.792 18.75C19.792 17.3686 20.3407 16.0439 21.3175 15.0671C22.2942 14.0904 23.619 13.5416 25.0003 13.5416ZM25.0003 4.16663C28.8681 4.16663 32.5774 5.70308 35.3123 8.43799C38.0472 11.1729 39.5837 14.8822 39.5837 18.75C39.5837 29.6875 25.0003 45.8333 25.0003 45.8333C25.0003 45.8333 10.417 29.6875 10.417 18.75C10.417 14.8822 11.9534 11.1729 14.6884 8.43799C17.4233 5.70308 21.1326 4.16663 25.0003 4.16663ZM25.0003 8.33329C22.2377 8.33329 19.5881 9.43076 17.6346 11.3843C15.6811 13.3378 14.5837 15.9873 14.5837 18.75C14.5837 20.8333 14.5837 25 25.0003 38.9791C35.417 25 35.417 20.8333 35.417 18.75C35.417 15.9873 34.3195 13.3378 32.366 11.3843C30.4125 9.43076 27.763 8.33329 25.0003 8.33329Z" fill="#00BCD4"/>
</svg>
