<svg width="53" height="53" viewBox="0 0 53 53" fill="none" xmlns="http://www.w3.org/2000/svg">
<path d="M26.5003 4.41663C38.6969 4.41663 48.5837 14.3033 48.5837 26.5C48.5837 38.6966 38.6969 48.5833 26.5003 48.5833C14.3037 48.5833 4.41699 38.6966 4.41699 26.5C4.41699 14.3033 14.3037 4.41663 26.5003 4.41663ZM26.5003 8.83329C21.8148 8.83329 17.3212 10.6946 14.0081 14.0077C10.695 17.3209 8.83366 21.8145 8.83366 26.5C8.83366 31.1854 10.695 35.679 14.0081 38.9922C17.3212 42.3053 21.8148 44.1666 26.5003 44.1666C31.1858 44.1666 35.6794 42.3053 38.9925 38.9922C42.3057 35.679 44.167 31.1854 44.167 26.5C44.167 21.8145 42.3057 17.3209 38.9925 14.0077C35.6794 10.6946 31.1858 8.83329 26.5003 8.83329ZM32.6837 30.6008C32.8897 30.393 33.135 30.2282 33.4053 30.116C33.6756 30.0037 33.9655 29.9464 34.2581 29.9472C34.5508 29.948 34.8403 30.007 35.11 30.1207C35.3797 30.2344 35.624 30.4005 35.8289 30.6095C36.0338 30.8185 36.1951 31.0661 36.3034 31.338C36.4118 31.6098 36.465 31.9005 36.46 32.1931C36.455 32.4857 36.3919 32.7745 36.2744 33.0425C36.1569 33.3105 35.9872 33.5525 35.7753 33.7543C33.3011 36.186 29.9694 37.5464 26.5003 37.5416C23.0312 37.5464 19.6995 36.186 17.2253 33.7543C16.8168 33.3423 16.587 32.786 16.5854 32.2058C16.5838 31.6255 16.8106 31.068 17.2168 30.6537C17.623 30.2394 18.1759 30.0015 18.756 29.9917C19.3362 29.9818 19.8969 30.2006 20.317 30.6008C21.9657 32.223 24.1874 33.13 26.5003 33.125C28.9074 33.125 31.087 32.1643 32.6837 30.6008ZM18.7712 17.6666C19.6497 17.6666 20.4922 18.0156 21.1134 18.6368C21.7347 19.258 22.0837 20.1006 22.0837 20.9791C22.0837 21.8577 21.7347 22.7002 21.1134 23.3214C20.4922 23.9426 19.6497 24.2916 18.7712 24.2916C17.8926 24.2916 17.0501 23.9426 16.4289 23.3214C15.8077 22.7002 15.4587 21.8577 15.4587 20.9791C15.4587 20.1006 15.8077 19.258 16.4289 18.6368C17.0501 18.0156 17.8926 17.6666 18.7712 17.6666ZM34.2295 17.6666C35.108 17.6666 35.9506 18.0156 36.5718 18.6368C37.193 19.258 37.542 20.1006 37.542 20.9791C37.542 21.8577 37.193 22.7002 36.5718 23.3214C35.9506 23.9426 35.108 24.2916 34.2295 24.2916C33.351 24.2916 32.5084 23.9426 31.8872 23.3214C31.266 22.7002 30.917 21.8577 30.917 20.9791C30.917 20.1006 31.266 19.258 31.8872 18.6368C32.5084 18.0156 33.351 17.6666 34.2295 17.6666Z" fill="black" fill-opacity="0.3"/>
</svg>
