<svg width="38" height="38" viewBox="0 0 38 38" fill="none" xmlns="http://www.w3.org/2000/svg">
<path d="M30.677 13.4583C31.6437 13.4585 32.5908 13.7311 33.4098 14.2447C34.2288 14.7583 34.8866 15.4923 35.3077 16.3624C35.7289 17.2326 35.8964 18.2038 35.791 19.1648C35.6857 20.1258 35.3118 21.0376 34.7122 21.7959C34.1126 22.5542 33.3115 23.1283 32.4007 23.4523C31.4899 23.7763 30.5062 23.8373 29.5624 23.6281C28.6186 23.4189 27.7528 22.9481 27.0641 22.2696C26.3755 21.5911 25.892 20.7323 25.6689 19.7917H20.9189C20.799 20.5597 20.5069 21.2905 20.0643 21.9295C19.6217 22.5685 19.0402 23.099 18.3634 23.4812C17.6865 23.8634 16.932 24.0874 16.1562 24.1364C15.3805 24.1855 14.6037 24.0582 13.8842 23.7642L11.4221 28.12C12.3878 28.9311 13.022 30.0685 13.2044 31.3164C13.3867 32.5643 13.1045 33.8356 12.4113 34.8891C11.718 35.9426 10.6621 36.7049 9.44386 37.0311C8.22568 37.3574 6.93009 37.2249 5.80312 36.6589C4.67615 36.0929 3.79627 35.1328 3.33054 33.9608C2.86482 32.7888 2.84568 31.4866 3.27677 30.3015C3.70786 29.1163 4.55915 28.1307 5.669 27.5318C6.77886 26.933 8.06999 26.7625 9.29724 27.0528L11.9446 22.3709C11.1323 21.4359 10.6858 20.2386 10.6874 19C10.6874 17.5639 11.2748 16.2656 12.2232 15.333L9.68515 10.8395C8.91337 11.0858 8.09437 11.1466 7.29469 11.0169C6.49501 10.8872 5.73719 10.5707 5.08281 10.0931C4.42843 9.6155 3.89594 8.99027 3.52859 8.26821C3.16124 7.54616 2.9694 6.74763 2.96865 5.9375C2.96866 5.08918 3.17839 4.25402 3.57918 3.50635C3.97998 2.75868 4.5594 2.12169 5.26588 1.65208C5.97235 1.18247 6.78398 0.894805 7.6285 0.814688C8.47303 0.734571 9.32427 0.864487 10.1064 1.19287C10.8886 1.52126 11.5775 2.03793 12.1117 2.6969C12.646 3.35586 13.009 4.13669 13.1685 4.96987C13.328 5.80306 13.2791 6.66276 13.0261 7.47246C12.773 8.28216 12.3237 9.01674 11.7182 9.61083L14.2562 14.1012C15.5544 13.683 16.9656 13.7973 18.1796 14.419C19.3935 15.0406 20.311 16.1189 20.7305 17.4167H25.6689C25.9362 16.2895 26.5761 15.2854 27.485 14.5671C28.3938 13.8487 29.5185 13.4581 30.677 13.4583ZM15.8332 16.2292C15.4639 16.2202 15.0965 16.2852 14.7527 16.4204C14.4088 16.5555 14.0955 16.7581 13.8311 17.0161C13.5667 17.2741 13.3565 17.5824 13.213 17.9228C13.0695 18.2633 12.9955 18.629 12.9954 18.9984C12.9953 19.3678 13.0691 19.7336 13.2124 20.0741C13.3557 20.4146 13.5657 20.723 13.8299 20.9812C14.0942 21.2394 14.4074 21.4421 14.7512 21.5774C15.095 21.7127 15.4623 21.778 15.8317 21.7692C16.5549 21.7522 17.2427 21.4529 17.7482 20.9355C18.2537 20.418 18.5368 19.7234 18.5371 19C18.5373 18.2766 18.2545 17.5818 17.7493 17.064C17.2441 16.5463 16.5564 16.2467 15.8332 16.2292ZM8.11449 3.16666C7.37962 3.16666 6.67484 3.45859 6.15521 3.97822C5.63558 4.49785 5.34365 5.20263 5.34365 5.9375C5.34365 6.67237 5.63558 7.37714 6.15521 7.89677C6.67484 8.4164 7.37962 8.70833 8.11449 8.70833C8.84936 8.70833 9.55413 8.4164 10.0738 7.89677C10.5934 7.37714 10.8853 6.67237 10.8853 5.9375C10.8853 5.20263 10.5934 4.49785 10.0738 3.97822C9.55413 3.45859 8.84936 3.16666 8.11449 3.16666ZM27.9062 18.6042C27.9062 19.339 28.1981 20.0438 28.7177 20.5634C29.2373 21.0831 29.9421 21.375 30.677 21.375C31.4119 21.375 32.1166 21.0831 32.6363 20.5634C33.1559 20.0438 33.4478 19.339 33.4478 18.6042C33.4478 17.8693 33.1559 17.1645 32.6363 16.6449C32.1166 16.1253 31.4119 15.8333 30.677 15.8333C29.9421 15.8333 29.2373 16.1253 28.7177 16.6449C28.1981 17.1645 27.9062 17.8693 27.9062 18.6042ZM5.34365 32.0625C5.34386 32.7976 5.63607 33.5025 6.156 34.0221C6.67593 34.5417 7.38099 34.8335 8.11607 34.8333C8.85115 34.8331 9.55604 34.5409 10.0757 34.021C10.5953 33.501 10.8871 32.796 10.8869 32.0609C10.8868 31.6969 10.815 31.3365 10.6756 31.0003C10.5362 30.6641 10.332 30.3586 10.0746 30.1013C9.81711 29.844 9.51151 29.6399 9.1752 29.5008C8.83889 29.3616 8.47846 29.29 8.11449 29.2901C7.75051 29.2902 7.39012 29.362 7.05389 29.5014C6.71766 29.6407 6.41218 29.845 6.15488 30.1024C5.89759 30.3599 5.69352 30.6655 5.55433 31.0018C5.41514 31.3381 5.34355 31.6985 5.34365 32.0625Z" fill="#673AB7"/>
</svg>
