<svg width="1129" height="1535" viewBox="0 0 1129 1535" fill="none" xmlns="http://www.w3.org/2000/svg">
<path opacity="0.563035" fill-rule="evenodd" clip-rule="evenodd" d="M0.00543604 -2.23618H1679.52V1433.89C1679.52 1433.89 1825.84 1751.77 1313.08 1348.46C800.318 945.145 584.368 1250.08 367.716 1064.82C151.065 879.567 646.248 188.572 400.798 55.9455C155.347 -76.6809 0.00543604 -2.23618 0.00543604 -2.23618Z" fill="#D1C4E9"/>
<path fill-rule="evenodd" clip-rule="evenodd" d="M122.005 -25.8926H1570.97V1214.03C1570.97 1214.03 1697.21 1488.48 1254.84 1140.27C812.461 792.059 626.154 1055.33 439.241 895.386C252.329 735.44 679.54 138.847 467.782 24.3403C256.023 -90.1668 122.005 -25.8926 122.005 -25.8926Z" fill="url(#paint0_linear_0_443)"/>
<g opacity="0.248814">
<ellipse cx="1134.5" cy="552.884" rx="24.5" ry="24" stroke="white" stroke-width="8"/>
<ellipse cx="904.5" cy="312.884" rx="24.5" ry="24" stroke="white" stroke-width="8"/>
<ellipse cx="774.5" cy="583.088" rx="14.5" ry="14.2041" stroke="white" stroke-width="8"/>
<rect x="910.076" y="707.057" width="22" height="22" transform="rotate(-23 910.076 707.057)" stroke="white" stroke-width="8"/>
<path d="M637.863 422.139L635.275 412.479L637.1 411.99L639.688 421.65L649.303 419.073L649.792 420.898L640.177 423.475L642.754 433.09L640.928 433.579L638.352 423.964L628.693 426.552L628.204 424.727L637.863 422.139Z" fill="white"/>
<path d="M916.83 521.542L911.872 503.039L915.368 502.102L920.326 520.605L938.744 515.67L939.681 519.166L921.263 524.101L926.198 542.52L922.702 543.457L917.767 525.038L899.263 529.996L898.326 526.5L916.83 521.542Z" fill="white"/>
<path d="M731.313 36.2439L725.17 13.3182L729.502 12.1576L735.645 35.0832L758.465 28.9686L759.625 33.3002L736.805 39.4148L742.92 62.2348L738.588 63.3954L732.474 40.5754L709.548 46.7183L708.387 42.3868L731.313 36.2439Z" fill="white"/>
</g>
<defs>
<linearGradient id="paint0_linear_0_443" x1="1152.47" y1="-1759.14" x2="-159.342" y2="146.554" gradientUnits="userSpaceOnUse">
<stop stop-color="#00BCD4"/>
<stop offset="1" stop-color="#673AB7"/>
</linearGradient>
</defs>
</svg>
