<svg width="50" height="50" viewBox="0 0 50 50" fill="none" xmlns="http://www.w3.org/2000/svg">
<path d="M43.2568 26.0596C44.0771 24.9756 44.5312 23.6475 44.5312 22.2657C44.5312 20.0733 43.3057 17.9981 41.333 16.8409C40.8252 16.543 40.247 16.3862 39.6582 16.3868H27.9492L28.2422 10.3858C28.3105 8.93558 27.7979 7.55863 26.8018 6.50883C26.3129 5.99138 25.7232 5.57969 25.0689 5.29918C24.4147 5.01868 23.7099 4.87532 22.998 4.87797C20.459 4.87797 18.2129 6.58695 17.5391 9.03324L13.3447 24.2188H7.03125C6.16699 24.2188 5.46875 24.917 5.46875 25.7813V43.5547C5.46875 44.419 6.16699 45.1172 7.03125 45.1172H36.3916C36.8408 45.1172 37.2803 45.0293 37.6855 44.8535C40.0098 43.8623 41.5088 41.5918 41.5088 39.0723C41.5088 38.4571 41.4209 37.8516 41.2451 37.2657C42.0654 36.1817 42.5195 34.8535 42.5195 33.4717C42.5195 32.8565 42.4316 32.251 42.2559 31.6651C43.0762 30.5811 43.5303 29.253 43.5303 27.8711C43.5205 27.2559 43.4326 26.6455 43.2568 26.0596ZM8.98438 41.6016V27.7344H12.9395V41.6016H8.98438ZM40.0586 24.3653L38.9893 25.293L39.668 26.5332C39.8916 26.9418 40.0075 27.4005 40.0049 27.8662C40.0049 28.6719 39.6533 29.4385 39.0479 29.9659L37.9785 30.8936L38.6572 32.1338C38.8808 32.5424 38.9968 33.0011 38.9941 33.4668C38.9941 34.2725 38.6426 35.0391 38.0371 35.5664L36.9678 36.4942L37.6465 37.7344C37.8701 38.143 37.986 38.6017 37.9834 39.0674C37.9834 40.1612 37.3389 41.1475 36.3428 41.5967H16.0645V27.5782L20.9229 9.97562C21.0481 9.52445 21.3171 9.12641 21.6889 8.84182C22.0607 8.55722 22.5152 8.40158 22.9834 8.39847C23.3545 8.39847 23.7207 8.5059 24.0137 8.72562C24.4971 9.08695 24.7559 9.63382 24.7266 10.2149L24.2578 19.9024H39.6094C40.4785 20.4346 41.0156 21.333 41.0156 22.2657C41.0156 23.0713 40.6641 23.833 40.0586 24.3653Z" fill="black" fill-opacity="0.4"/>
</svg>
