<svg width="50" height="50" viewBox="0 0 50 50" fill="none" xmlns="http://www.w3.org/2000/svg">
<path d="M16.1773 40.052C17.4064 39.5104 18.7814 39.4083 20.0689 39.7625C21.6731 40.2 23.3294 40.4208 25.0023 40.4166C34.5544 40.4166 41.6689 33.5708 41.6689 24.375C41.6689 15.1791 34.5544 8.33329 25.0023 8.33329C15.4502 8.33329 8.33561 15.1812 8.33561 24.375C8.33561 29.1041 10.2023 33.275 13.4731 36.2C14.0674 36.7264 14.548 37.3685 14.8854 38.0871C15.2229 38.8057 15.4101 39.5856 15.4356 40.3791L16.1773 40.052ZM25.0023 4.16663C36.7398 4.16663 45.8356 12.7645 45.8356 24.375C45.8356 35.9854 36.7377 44.5833 25.0023 44.5833C22.9652 44.5859 20.937 44.3168 18.971 43.7833C18.6019 43.6818 18.209 43.7105 17.8585 43.8645L13.7231 45.6895C13.4734 45.7999 13.2004 45.8472 12.9281 45.8274C12.6558 45.8075 12.3925 45.721 12.1614 45.5755C11.9304 45.4301 11.7386 45.2301 11.603 44.9931C11.4673 44.7562 11.392 44.4895 11.3835 44.2166L11.271 40.5083C11.2629 40.2827 11.209 40.0612 11.1127 39.857C11.0164 39.6529 10.8796 39.4705 10.7106 39.3208C6.65853 35.6958 4.16895 30.45 4.16895 24.375C4.16895 12.7645 13.2648 4.16663 25.0023 4.16663ZM12.4919 30.2854L18.6106 20.577C18.8408 20.2115 19.1443 19.8977 19.5019 19.6554C19.8596 19.4131 20.2635 19.2476 20.6883 19.1693C21.1132 19.091 21.5496 19.1016 21.9701 19.2005C22.3906 19.2993 22.786 19.4843 23.1314 19.7437L27.9981 23.3895C28.215 23.5533 28.4794 23.6419 28.7512 23.6419C29.023 23.6419 29.2874 23.5533 29.5044 23.3895L36.0773 18.4C36.9544 17.7333 38.1002 18.7833 37.5127 19.7145L31.3939 29.4229C31.1637 29.7884 30.8602 30.1022 30.5026 30.3445C30.145 30.5868 29.741 30.7523 29.3162 30.8306C28.8914 30.909 28.455 30.8983 28.0345 30.7995C27.614 30.7006 27.2185 30.5156 26.8731 30.2562L22.0064 26.6104C21.7895 26.4466 21.5251 26.358 21.2533 26.358C20.9815 26.358 20.7171 26.4466 20.5002 26.6104L13.9273 31.6041C13.0502 32.2687 11.9044 31.2187 12.4919 30.2854Z" fill="#00BCD4"/>
</svg>
