<svg width="50" height="50" viewBox="0 0 50 50" fill="none" xmlns="http://www.w3.org/2000/svg">
<path d="M15.625 25C15.625 25.8288 15.2958 26.6237 14.7097 27.2097C14.1237 27.7958 13.3288 28.125 12.5 28.125C11.6712 28.125 10.8763 27.7958 10.2903 27.2097C9.70424 26.6237 9.375 25.8288 9.375 25C9.375 24.1712 9.70424 23.3763 10.2903 22.7903C10.8763 22.2042 11.6712 21.875 12.5 21.875C13.3288 21.875 14.1237 22.2042 14.7097 22.7903C15.2958 23.3763 15.625 24.1712 15.625 25ZM28.125 25C28.125 25.8288 27.7958 26.6237 27.2097 27.2097C26.6237 27.7958 25.8288 28.125 25 28.125C24.1712 28.125 23.3763 27.7958 22.7903 27.2097C22.2042 26.6237 21.875 25.8288 21.875 25C21.875 24.1712 22.2042 23.3763 22.7903 22.7903C23.3763 22.2042 24.1712 21.875 25 21.875C25.8288 21.875 26.6237 22.2042 27.2097 22.7903C27.7958 23.3763 28.125 24.1712 28.125 25ZM37.5 28.125C38.3288 28.125 39.1237 27.7958 39.7097 27.2097C40.2958 26.6237 40.625 25.8288 40.625 25C40.625 24.1712 40.2958 23.3763 39.7097 22.7903C39.1237 22.2042 38.3288 21.875 37.5 21.875C36.6712 21.875 35.8763 22.2042 35.2903 22.7903C34.7042 23.3763 34.375 24.1712 34.375 25C34.375 25.8288 34.7042 26.6237 35.2903 27.2097C35.8763 27.7958 36.6712 28.125 37.5 28.125Z" fill="#00BCD4"/>
<path d="M6.76562 49.3844L6.82812 49.3719C12.5469 48.2375 16.0406 46.7406 17.6656 45.9188C20.0577 46.559 22.5238 46.8805 25 46.875C38.8063 46.875 50 37.0812 50 25C50 12.9187 38.8063 3.125 25 3.125C11.1937 3.125 0 12.9187 0 25C0 30.5 2.32188 35.5312 6.15625 39.375C5.88899 41.8442 5.33957 44.2747 4.51875 46.6188L4.50938 46.6531C4.27585 47.3244 4.02156 47.9883 3.74688 48.6437C3.5 49.225 3.97813 49.875 4.6 49.775C5.32391 49.6564 6.04588 49.5261 6.76562 49.3844ZM9.26562 39.6719C9.3094 39.2144 9.25172 38.7528 9.09669 38.3202C8.94167 37.8875 8.69312 37.4944 8.36875 37.1688C5.05625 33.8438 3.125 29.5875 3.125 25C3.125 15.025 12.5125 6.25 25 6.25C37.4875 6.25 46.875 15.025 46.875 25C46.875 34.975 37.4875 43.75 25 43.75C22.7971 43.7554 20.6031 43.4696 18.475 42.9C17.7312 42.7007 16.94 42.783 16.2531 43.1312C15.0438 43.7438 12.3781 44.9125 8.02187 45.9219C8.62909 43.8815 9.04546 41.7892 9.26562 39.6719Z" fill="#00BCD4"/>
</svg>
