<svg width="39" height="39" viewBox="0 0 39 39" fill="none" xmlns="http://www.w3.org/2000/svg">
<path d="M26 6.5C26.431 6.5 26.8443 6.67121 27.149 6.97595C27.4538 7.2807 27.625 7.69402 27.625 8.125V14.95L36.0961 9.01875C36.2179 8.93337 36.3608 8.88306 36.5093 8.87331C36.6577 8.86357 36.806 8.89476 36.9379 8.96349C37.0698 9.03222 37.1803 9.13585 37.2574 9.26307C37.3345 9.3903 37.3752 9.53625 37.375 9.685V29.315C37.3752 29.4638 37.3345 29.6097 37.2574 29.7369C37.1803 29.8642 37.0698 29.9678 36.9379 30.0365C36.806 30.1052 36.6577 30.1364 36.5093 30.1267C36.3608 30.1169 36.2179 30.0666 36.0961 29.9813L27.625 24.05V30.875C27.625 31.306 27.4538 31.7193 27.149 32.024C26.8443 32.3288 26.431 32.5 26 32.5H3.25C2.81902 32.5 2.4057 32.3288 2.10095 32.024C1.7962 31.7193 1.625 31.306 1.625 30.875V8.125C1.625 7.69402 1.7962 7.2807 2.10095 6.97595C2.4057 6.67121 2.81902 6.5 3.25 6.5H26ZM24.375 9.75H4.875V29.25H24.375V9.75ZM13 13H16.25V17.875H21.125V21.125H16.2484L16.25 26H13L12.9984 21.125H8.125V17.875H13V13ZM34.125 14.3666L27.625 18.9166V20.0834L34.125 24.6334V14.3666Z" fill="#673AB7"/>
</svg>
