<svg width="39" height="39" viewBox="0 0 39 39" fill="none" xmlns="http://www.w3.org/2000/svg">
<path d="M35.75 19.5C35.75 19.069 35.5788 18.6557 35.274 18.351C34.9693 18.0462 34.556 17.875 34.125 17.875C33.694 17.875 33.2807 18.0462 32.976 18.351C32.6712 18.6557 32.5 19.069 32.5 19.5H35.75ZM19.5 6.5C19.931 6.5 20.3443 6.3288 20.649 6.02405C20.9538 5.7193 21.125 5.30598 21.125 4.875C21.125 4.44402 20.9538 4.0307 20.649 3.72595C20.3443 3.4212 19.931 3.25 19.5 3.25V6.5ZM31.6875 32.5H7.3125V35.75H31.6875V32.5ZM6.5 31.6875V7.3125H3.25V31.6875H6.5ZM32.5 19.5V31.6875H35.75V19.5H32.5ZM7.3125 6.5H19.5V3.25H7.3125V6.5ZM7.3125 32.5C7.09701 32.5 6.89035 32.4144 6.73798 32.262C6.5856 32.1097 6.5 31.903 6.5 31.6875H3.25C3.25 32.7649 3.67801 33.7983 4.43988 34.5601C5.20175 35.322 6.23506 35.75 7.3125 35.75V32.5ZM31.6875 35.75C32.7649 35.75 33.7983 35.322 34.5601 34.5601C35.322 33.7983 35.75 32.7649 35.75 31.6875H32.5C32.5 31.903 32.4144 32.1097 32.262 32.262C32.1097 32.4144 31.903 32.5 31.6875 32.5V35.75ZM6.5 7.3125C6.5 7.09701 6.5856 6.89035 6.73798 6.73798C6.89035 6.5856 7.09701 6.5 7.3125 6.5V3.25C6.23506 3.25 5.20175 3.67801 4.43988 4.43988C3.67801 5.20175 3.25 6.23506 3.25 7.3125H6.5Z" fill="#673AB7"/>
<path d="M4.875 28.4375L13.5631 20.4734C13.8559 20.205 14.2369 20.0532 14.6341 20.0466C15.0312 20.04 15.4171 20.1791 15.7186 20.4376L26 29.25M22.75 25.1875L26.6281 21.3094C26.9047 21.0326 27.2719 20.865 27.6622 20.8372C28.0525 20.8094 28.4398 20.9235 28.7528 21.1583L34.125 25.1875M30.0625 14.625V4.875M30.0625 4.875L26 8.9375M30.0625 4.875L34.125 8.9375" stroke="#673AB7" stroke-width="2" stroke-linecap="round" stroke-linejoin="round"/>
</svg>
